# xmcd CD database file
#
# Track frame offsets:
#	182
#	35395
#	68930
#	104602
#	133217
#	160205
#	188442
#	193617
#	231755
#	278767
#
# Disc length: 3814 seconds
#
# Revision: 0
# Processed by: cddbd v1.5.2PL0 Copyright (c) Steve Scherf et al.
# Submitted via: CDex 1.70beta2
#
DISCID=8a0ee40a
DTITLE=Art Blakey 1960 Jazz Messengers - The Complete Blue Note recordings v2cd5
DYEAR=1960
DGENRE=Jazz
TTITLE0=The black sliders
TTITLE1=The freedom rider
TTITLE2=Tell it like it is
TTITLE3=El toro
TTITLE4=Blue Lace
TTITLE5=Uptight
TTITLE6=Annoucement by P.W. Marquette
TTITLE7=The opener
TTITLE8=What know
TTITLE9=Theme and announcement by P W Marquette
EXTD=YEAR: 1960
EXTT0=
EXTT1=
EXTT2=
EXTT3=
EXTT4=
EXTT5=
EXTT6=
EXTT7=
EXTT8=
EXTT9=
PLAYORDER=
